<?xml version="1.0" encoding="UTF-8"?>
<svg version="1.1" xmlns="http://www.w3.org/2000/svg" width="2000" height="2242">
<path d="M0 0 C5.16254374 3.4391873 9.76950893 7.44077972 14.43017578 11.51586914 C19.23653956 15.70869681 24.1204597 19.586398 29.5625 22.9375 C30.26246094 23.36933594 30.96242188 23.80117187 31.68359375 24.24609375 C40.50368121 28.92316765 50.32500903 27.6899401 59.5625 24.9375 C59.63727342 31.12643871 59.69139419 37.31510802 59.72729492 43.50439453 C59.74227873 45.60502714 59.76267281 47.70562901 59.78881836 49.80615234 C60.17914337 81.99648572 60.17914337 81.99648572 48.59375 93.97265625 C32.86758165 107.39118033 9.45026186 105.11333237 -9.82537842 104.52746582 C-91.51656727 102.11752261 -170.83638162 114.50936194 -313.79638672 179.46191406 C-317.71384014 181.65058928 -321.67080076 183.76411667 -325.62524414 185.88500977 C-335.55280605 191.21451034 -345.35213268 196.70142805 -355.01757812 202.49121094 C-358.87514076 204.79671952 -362.7448284 207.08170384 -366.61254883 209.37011719 C-371.92025208 212.51151244 -377.22442432 215.65885555 -382.5289917 218.80554199 C-384.47896984 219.96209623 -386.42915363 221.11830297 -388.37939453 222.27441406 C-392.44090152 224.68214764 -396.50182426 227.09086481 -400.5625 229.5 C-401.2399527 229.90182495 -401.9174054 230.3036499 -402.61538696 230.71765137 C-410.47692248 235.38159778 -418.32395404 240.06782601 -426.1496582 244.79174805 C-435.98426334 250.72665522 -445.88848871 256.51373037 -455.875 262.1875 C-477.4191175 274.44081927 -498.48149866 286.67785329 -516.4375 303.9375 C-518.40618997 305.76153006 -520.39081992 307.56785195 -522.375 309.375 C-528.74677374 315.21007193 -535.09193066 321.07396797 -541.4375 326.9375 C-550.71271721 335.50813098 -560.00414408 344.06054243 -569.328125 352.578125 C-576.02097788 358.69832737 -582.67431533 364.85914734 -589.29272461 371.05981445 C-591.88555974 373.48801665 -594.48404855 375.90983929 -597.08862305 378.32543945 C-608.64449855 389.08019324 -619.84055481 400.18502834 -630.98876953 411.35839844 C-633.57251777 413.94791167 -636.16082744 416.53281233 -638.75042152 419.11647797 C-640.78043509 421.14285774 -642.80803655 423.17163769 -644.83494186 425.2011261 C-646.24430247 426.61145909 -647.65564285 428.01981282 -649.06704712 429.42810059 C-653.53445264 433.91177541 -657.87663691 438.44396918 -661.9921875 443.2540741 C-664.19510027 445.81991396 -666.50755236 448.27546913 -668.8125 450.75 C-673.1062538 455.39788542 -677.1728184 460.18166348 -681.140625 465.11328125 C-683.16282938 467.59976725 -685.22911879 470.04035799 -687.31958008 472.46948242 C-693.76638196 479.97713587 -699.80189977 487.76684761 -705.74169922 495.6796875 C-706.87020446 497.18219491 -708.00203402 498.68221135 -709.13720703 500.1796875 C-730.22207441 528.0119532 -747.75419624 557.78400717 -763.4375 588.9375 C-763.8922168 589.82695313 -764.34693359 590.71640625 -764.81542969 591.6328125 C-796.85974837 654.48992341 -808.9755194 723.71095177 -816.2656877 793.12075949 C-816.95132866 799.61263145 -817.65546816 806.10249641 -818.35798645 812.59255981 C-819.53216238 823.45498414 -820.69727065 834.31834779 -821.85424805 845.18261719 C-821.92699628 845.86570686 -821.99974451 846.54879654 -822.07469723 847.2525859 C-822.36951658 850.02109839 -822.66429231 852.78961552 -822.95901613 855.55813818 C-823.77531344 863.22574856 -824.59308773 870.89320096 -825.41186523 878.56054688 C-825.48542644 879.24943488 -825.55898765 879.93832289 -825.63477799 880.64808629 C-826.86561906 892.17182685 -828.10548228 903.69458129 -829.35098153 915.21674645 C-830.18078209 922.90007738 -830.99936041 930.58449214 -831.80885541 938.26998782 C-832.3144589 943.04934956 -832.82938219 947.82767532 -833.34668541 952.60578346 C-833.58280973 954.80464991 -833.81511497 957.00393069 -834.04312515 959.20365334 C-835.78294169 975.96008816 -838.05968688 991.4999516 -845.8125 1006.6875 C-846.29855713 1007.67266602 -846.78461426 1008.65783203 -847.28540039 1009.67285156 C-849.27488361 1013.69371586 -851.30991048 1017.69094715 -853.34765625 1021.6875 C-864.88613359 1044.35131227 -863.29400467 1063.49286133 -859.60170603 1087.86974645 C-859.01931279 1091.74861906 -858.46302136 1095.63123432 -857.90402222 1099.51353455 C-856.8442666 1106.84772052 -855.7634466 1114.17862331 -854.67388618 1121.50843471 C-853.0750685 1132.2693274 -851.50367083 1143.03423268 -849.93795586 1153.79998684 C-849.822711 1154.59239507 -849.70746615 1155.38480331 -849.58872902 1156.20122391 C-849.35891057 1157.781652 -849.12916678 1159.36209095 -848.89949977 1160.94254106 C-848.22960705 1165.54690272 -847.55191308 1170.15002843 -846.86732125 1174.75222695 C-846.44232398 1177.61468225 -846.02178441 1180.47778166 -845.60211563 1183.34102249 C-845.31502084 1185.28891572 -845.02208506 1187.2359453 -844.72894287 1189.18293762 C-843.85519053 1195.16960883 -843.21335995 1200.88680284 -843.4375 1206.9375 C-844.01757812 1206.51597656 -844.59765625 1206.09445312 -845.1953125 1205.66015625 C-851.24631771 1201.24498603 -851.24631771 1201.24498603 -858.4375 1199.9375 C-863.62419719 1201.70097704 -865.78410121 1204.22034659 -868.4375 1208.9375 C-870.97133598 1216.53900795 -869.30517166 1222.0905317 -866.25 1229.125 C-865.81300781 1230.14049927 -865.81300781 1230.14049927 -865.3671875 1231.17651367 C-862.74933043 1236.90448044 -859.92103624 1241.80861989 -854 1244.5 C-849.567275 1245.04436974 -848.07863988 1244.49404502 -844.4375 1241.9375 C-842.77153062 1240.14032062 -841.22959914 1238.30466098 -839.734375 1236.36328125 C-839.30640625 1235.89277344 -838.8784375 1235.42226562 -838.4375 1234.9375 C-837.7775 1234.9375 -837.1175 1234.9375 -836.4375 1234.9375 C-825.69908455 1256.47114792 -817.00161482 1278.93782529 -808.125 1301.28442383 C-784.32052114 1361.41570219 -784.32052114 1361.41570219 -746.69921875 1413.49609375 C-744.75813341 1415.59139313 -742.86765898 1417.71454888 -741 1419.875 C-737.60938928 1423.7761968 -734.11652401 1427.58092064 -730.61645508 1431.38354492 C-727.78262108 1434.46392488 -724.97422043 1437.56426994 -722.1875 1440.6875 C-712.62996875 1451.31642711 -702.8359569 1461.709817 -692.62451172 1471.71362305 C-689.70521967 1474.59014009 -686.91043778 1477.50592873 -684.24609375 1480.62109375 C-679.77880862 1485.7936741 -674.93439878 1490.59033301 -670.0949707 1495.41040039 C-668.50291034 1496.99709946 -666.9162701 1498.58907742 -665.33007812 1500.18164062 C-660.5077519 1505.00679238 -655.63852349 1509.70703013 -650.45092773 1514.14233398 C-645.12417548 1518.89165001 -640.22293289 1524.11927754 -635.21484375 1529.19921875 C-630.69244604 1533.76111339 -626.13031827 1538.16897496 -621.25097656 1542.34667969 C-618.38127891 1544.86403967 -615.72566348 1547.58016344 -613.0625 1550.3125 C-609.60080978 1554.07776227 -609.60080978 1554.07776227 -605.4375 1556.9375 C-606.05995569 1544.64860192 -606.05995569 1544.64860192 -607.25390625 1532.40625 C-607.53801656 1528.5858731 -607.47002866 1524.76658769 -607.4375 1520.9375 C-606.06875732 1520.63682617 -606.06875732 1520.63682617 -604.67236328 1520.33007812 C-593.5881341 1517.89237717 -582.51041621 1515.4260776 -571.4375 1512.9375 C-570.66456604 1512.76395996 -569.89163208 1512.59041992 -569.09527588 1512.41162109 C-549.31798674 1507.9641962 -529.74945296 1503.15600649 -510.4375 1496.9375 C-509.51855957 1496.64520508 -508.59961914 1496.35291016 -507.65283203 1496.05175781 C-491.68777033 1490.88996643 -477.42279832 1484.00609116 -469.13671875 1468.50390625 C-463.54896071 1455.80445615 -463.58991754 1440.88807622 -462.5 1427.25 C-462.37118942 1425.65162796 -462.37118942 1425.65162796 -462.23977661 1424.02096558 C-457.0755156 1359.37817163 -454.75921388 1294.26717775 -453.64160156 1229.4284668 C-453.53966782 1223.5854617 -453.43489253 1217.7425862 -453.3157959 1211.89990234 C-452.07848366 1150.48134232 -452.28371748 1089.04845179 -452.30803882 1027.62056179 C-452.31250568 1016.10926102 -452.3116857 1004.59797052 -452.30712891 993.08666992 C-452.18019073 900.05701869 -452.18019073 900.05701869 -453.37273407 807.03755569 C-453.43454851 804.07877479 -453.49371452 801.11995332 -453.55206299 798.16110229 C-453.74490489 788.50162935 -453.97510116 778.8439125 -454.25336838 769.18651581 C-454.3157106 767.01306836 -454.37637486 764.83957826 -454.4367981 762.66607666 C-455.87811179 711.07656029 -457.50244176 659.40463215 -461.4375 607.9375 C-461.51162109 606.96578857 -461.58574219 605.99407715 -461.66210938 604.99291992 C-462.12277317 599.01832336 -462.61028794 593.04663597 -463.12991333 587.07687378 C-463.28992318 585.23129134 -463.44608322 583.38536994 -463.59786987 581.53909302 C-465.00820539 564.61881299 -467.75290096 549.03180967 -480.5 536.6875 C-509.65593724 512.8896903 -560.49009179 508.58103844 -596.4375 500.9375 C-595.85056641 490.46677736 -595.03666799 480.05621301 -593.9375 469.625 C-593.74220703 467.69624023 -593.74220703 467.69624023 -593.54296875 465.72851562 C-593.35154297 463.88870117 -593.35154297 463.88870117 -593.15625 462.01171875 C-593.04216797 460.91432373 -592.92808594 459.81692871 -592.81054688 458.6862793 C-592.4375 455.9375 -592.4375 455.9375 -591.4375 452.9375 C-579.60950372 452.85046146 -567.81001856 453.07400374 -555.98858643 453.46252251 C-552.95780124 453.56203129 -549.92691961 453.6579914 -546.89599609 453.75318909 C-539.34395366 453.99106825 -531.79209293 454.23451317 -524.24023438 454.47814941 C-476.23968795 456.02530196 -428.27039559 457.14654342 -380.24241638 457.12638092 C-376.86461331 457.12496955 -373.48681212 457.12508568 -370.10900879 457.12518311 C-327.95002657 457.11617951 -285.83866098 456.36649379 -243.70294952 455.01040649 C-241.42646958 454.93714502 -239.14997374 454.86439541 -236.87347412 454.79174805 C-218.13760635 454.19310259 -218.13760635 454.19310259 -199.40332031 453.54736328 C-187.74162088 453.1349734 -176.10737356 452.79784723 -164.4375 452.9375 C-163.72392228 459.45182214 -163.01200944 465.96632466 -162.30126953 472.48095703 C-162.05914288 474.69844717 -161.81663109 476.91589529 -161.57373047 479.13330078 C-161.2252303 482.31532066 -160.87810264 485.49748767 -160.53125 488.6796875 C-160.36719666 490.17349442 -160.36719666 490.17349442 -160.1998291 491.69747925 C-160.09972534 492.61828278 -159.99962158 493.5390863 -159.89648438 494.48779297 C-159.80765991 495.3005368 -159.71883545 496.11328064 -159.62731934 496.95065308 C-159.4375 498.9375 -159.4375 498.9375 -159.4375 500.9375 C-161.23876343 501.32905273 -161.23876343 501.32905273 -163.07641602 501.72851562 C-228.63553766 511.43620155 -228.63553766 511.43620155 -282.4375 543.9375 C-291.41997431 558.159751 -292.40619319 574.30102361 -293.9375 590.625 C-294.04422028 591.74439972 -294.15094055 592.86379944 -294.26089478 594.01712036 C-297.10625674 624.2636752 -298.35435384 654.58723121 -299.4375 684.9375 C-299.4849939 686.25615051 -299.53248779 687.57480103 -299.5814209 688.93341064 C-301.87751676 753.33899957 -302.94442278 817.80697285 -303.75 882.24609375 C-303.76132902 883.14618731 -303.77265804 884.04628086 -303.78433037 884.97364998 C-303.88942456 893.3646893 -303.98986614 901.75573561 -304.07265663 910.14702702 C-304.10255402 913.11762813 -304.13569918 916.08818798 -304.16938782 919.05874825 C-304.1905302 921.04278969 -304.20676045 923.02688164 -304.22277832 925.01097107 C-304.29584908 931.3956914 -304.59388536 937.60677775 -305.4375 943.9375 C-304.60226807 943.92154785 -303.76703613 943.9055957 -302.90649414 943.88916016 C-290.48721026 943.76452218 -278.12997509 944.43697142 -265.73175049 945.10552979 C-259.06790206 945.46314124 -252.40321965 945.80404386 -245.73828125 946.140625 C-245.05846443 946.17499287 -244.37864761 946.20936073 -243.67823029 946.24477005 C-229.31067276 946.96792501 -214.93894408 947.54691021 -200.5625 948.0625 C-199.51415985 948.1007489 -198.4658197 948.1389978 -197.38571167 948.17840576 C-164.18197664 949.38129017 -130.97262015 950.11696293 -97.75 950.5 C-96.4307509 950.51551029 -96.4307509 950.51551029 -95.08485031 950.53133392 C-7.82671828 951.55447198 79.52249909 951.55756385 274.36083984 944.10571289 C280.42041884 943.78842161 286.49691989 943.90608676 292.5625 943.9375 C291.60748795 809.34367558 291.60748795 809.34367558 282.5625 602.9375 C282.48837891 602.10263062 282.41425781 601.26776123 282.33789062 600.40759277 C281.87239196 595.18466845 281.38506813 589.96440822 280.87008667 584.74612427 C280.71025597 583.11830306 280.55409434 581.49011616 280.40213013 579.86154175 C278.86394142 563.57712736 275.72783454 548.52895315 263.5 536.6875 C234.45239474 512.90809603 183.41581908 508.4715626 147.5625 500.9375 C148.05764436 490.08421319 148.95772101 479.30900862 150.0625 468.5 C150.19309814 467.20167236 150.32369629 465.90334473 150.45825195 464.56567383 C150.58546631 463.34904053 150.71268066 462.13240723 150.84375 460.87890625 C150.95783203 459.78263916 151.07191406 458.68637207 151.18945312 457.55688477 C151.5625 454.9375 151.5625 454.9375 152.5625 452.9375 C164.08410467 452.84582634 175.57593721 453.08937488 187.09087944 453.46252251 C190.15939588 453.56185693 193.22800198 453.65788511 196.29664612 453.75318909 C203.94384813 453.99131556 211.59088601 454.23454001 219.23791504 454.47814941 C267.41255862 456.0117202 315.55596969 457.14661631 363.75758362 457.12638092 C367.13538669 457.12496955 370.51318788 457.12508568 373.89099121 457.12518311 C416.04997343 457.11617951 458.16133902 456.36649379 500.29705048 455.01040649 C502.57353042 454.93714502 504.85002626 454.86439541 507.12652588 454.79174805 C525.86239365 454.19310259 525.86239365 454.19310259 544.59667969 453.54736328 C545.76821091 453.50629456 546.93974213 453.46522583 548.14677429 453.4229126 C550.27008051 453.34813803 552.39331342 453.27122475 554.51643372 453.19134521 C562.88074576 452.89874073 571.17441704 452.9375 579.5625 452.9375 C581.2125 468.7775 582.8625 484.6175 584.5625 500.9375 C579.2721875 502.08025391 579.2721875 502.08025391 573.875 503.24609375 C518.0652488 512.34229871 518.0652488 512.34229871 468.5625 536.9375 C467.92441406 537.45570313 467.28632812 537.97390625 466.62890625 538.5078125 C454.98046118 548.87868617 452.45965031 565.33040621 451.28125 580.08984375 C451.18258133 581.23815674 451.08391266 582.38646973 450.98225403 583.56958008 C450.66355429 587.33716116 450.36168534 591.10582205 450.0625 594.875 C449.95577972 596.18493927 449.84905945 597.49487854 449.73910522 598.84451294 C447.39307948 627.67670211 445.91770892 656.53915458 444.71032715 685.44067383 C444.57118024 688.73217051 444.42616192 692.02333685 444.27832031 695.31445312 C440.09772922 788.71891105 439.57165565 882.31585987 440.46528816 1184.36305714 C440.53681368 1189.1140377 440.60123219 1193.86504664 440.65966797 1198.61621094 C441.58575094 1273.85307314 443.93447233 1349.32932231 449.90161896 1424.34336853 C450.06011776 1426.34491672 450.21547719 1428.3467127 450.37078857 1430.34851074 C450.66260643 1434.06543542 450.96924731 1437.78081487 451.28125 1441.49609375 C451.3656131 1442.58085495 451.4499762 1443.66561615 451.53689575 1444.7832489 C452.86950436 1460.01878312 456.64868818 1473.26649245 468.109375 1483.94921875 C494.31350359 1505.18791533 538.4373461 1509.79607612 570.5625 1516.9375 C571.40703735 1517.12552185 572.25157471 1517.3135437 573.1217041 1517.50726318 C578.26811874 1518.65301367 583.41507291 1519.79630707 588.5625 1520.9375 C588.64937862 1527.15203609 588.35734214 1533.17231775 587.6875 1539.34765625 C587.55432373 1540.62702309 587.55432373 1540.62702309 587.41845703 1541.93223572 C587.13747328 1544.62196686 586.85010202 1547.31096933 586.5625 1550 C586.36936658 1551.837846 586.17665435 1553.67573632 585.984375 1555.51367188 C585.51527962 1559.9888078 585.04045959 1564.46330249 584.5625 1568.9375 C580.59503334 1568.7921739 576.62759003 1568.64622087 572.66015625 1568.5 C571.43579361 1568.45488281 570.21143097 1568.40976563 568.94996643 1568.36328125 C561.98873569 1568.1054755 555.02795567 1567.83900312 548.0675354 1567.56021118 C490.62512375 1565.26525428 433.21373142 1564.84469536 375.7349968 1564.81610382 C371.43318826 1564.81396075 367.13138287 1564.81071721 362.82957596 1564.80642545 C311.58053781 1564.75641808 260.34985976 1565.23408193 209.125 1566.9375 C206.3634779 1567.02630572 203.60190885 1567.11359772 200.84033203 1567.20068359 C199.45733616 1567.24434579 198.07434055 1567.28801639 196.69134521 1567.33169556 C196.01308434 1567.35311237 195.33482346 1567.37452919 194.63600922 1567.396595 C192.64227368 1567.45977125 190.64855969 1567.52362619 188.65484619 1567.5874939 C177.41660923 1567.9469233 166.17757328 1568.26661429 154.9375 1568.5625 C154.16407257 1568.58296387 153.39064514 1568.60342773 152.59378052 1568.62451172 C148.58339492 1568.73047308 144.57297496 1568.83496655 140.5625 1568.9375 C139.98596108 1563.70954932 139.4165807 1558.48088388 138.85351562 1553.25146484 C138.6614203 1551.47651695 138.46744822 1549.70177104 138.27148438 1547.92724609 C136.26964866 1529.77794984 136.26964866 1529.77794984 136.5625 1520.9375 C137.47499512 1520.73705078 138.38749023 1520.53660156 139.32763672 1520.33007812 C150.4118659 1517.89237717 161.48958379 1515.4260776 172.5625 1512.9375 C173.33543396 1512.76395996 174.10836792 1512.59041992 174.90472412 1512.41162109 C228.78454285 1503.11290642 228.78454285 1503.11290642 271.8125 1473.8125 C279.54179927 1460.95368026 279.88740569 1446.06980221 281.125 1431.5 C281.22955505 1430.3150293 281.33411011 1429.13005859 281.4418335 1427.90917969 C287.26203611 1361.89487476 289.4971843 1295.29312184 290.51428223 1229.03546143 C290.56669511 1225.66796708 290.62256711 1222.30053962 290.67871094 1218.93310547 C291.68908791 1157.60617261 292.08219139 1096.27035181 292.5625 1034.9375 C263.21597259 1032.44960395 263.21597259 1032.44960395 233.8125 1030.8125 C231.98590983 1030.73341691 230.15933135 1030.65406374 228.33276367 1030.57446289 C223.0765008 1030.34894781 217.81969922 1030.13987979 212.5625 1029.9375 C211.48757294 1029.8955954 211.48757294 1029.8955954 210.39093018 1029.85284424 C162.69866681 1028.00683027 114.94835158 1027.77952788 67.22704315 1027.8031745 C63.10556482 1027.8049993 58.9840884 1027.80460008 54.86260986 1027.80368423 C54.16477186 1027.803531 53.46693385 1027.80337777 52.74794924 1027.80321989 C51.32753611 1027.80289997 49.90712297 1027.80257575 48.48670983 1027.8022473 C35.36257491 1027.79943835 22.23844712 1027.80260578 9.11431336 1027.80804767 C-1.99215402 1027.81251143 -13.09861093 1027.81173417 -24.20507812 1027.80712891 C-37.30255872 1027.80170011 -50.40003316 1027.7997126 -63.49751472 1027.80274117 C-64.91087977 1027.80305951 -66.32424482 1027.80337388 -67.73760986 1027.80368423 C-68.43187934 1027.80383851 -69.12614882 1027.80399279 -69.84145677 1027.80415174 C-74.5867503 1027.80499242 -79.3320385 1027.80355604 -84.07733154 1027.80120468 C-130.39339687 1027.78137281 -176.71109594 1028.17607474 -223 1029.875 C-224.19139587 1029.91729736 -225.38279175 1029.95959473 -226.61029053 1030.00317383 C-244.91269735 1030.65586895 -263.1795213 1031.48125791 -281.4375 1032.9375 C-282.61521973 1033.03063477 -283.79293945 1033.12376953 -285.00634766 1033.21972656 C-291.8193397 1033.76388052 -298.62888496 1034.34138836 -305.4375 1034.9375 C-305.40949814 1035.96796448 -305.38149628 1036.99842896 -305.35264587 1038.06011963 C-304.74206742 1060.90878304 -304.3418678 1083.75293275 -304.19140625 1106.609375 C-304.18347549 1107.80717087 -304.17554474 1109.00496674 -304.16737366 1110.23905945 C-304.13498748 1115.20297945 -304.10350665 1120.16690423 -304.07305527 1125.13083649 C-303.53511411 1212.56102933 -302.25815834 1300.01821194 -293.4375 1433.6875 C-293.35968292 1434.58023621 -293.28186584 1435.47297241 -293.20169067 1436.39276123 C-291.64199646 1454.05251808 -289.87334835 1471.1107223 -276.12109375 1483.82421875 C-245.14568917 1508.21678626 -193.12542074 1513.0605109 -155.4375 1520.9375 C-155.10744375 1530.90107294 -156.34580704 1540.67681731 -157.4375 1550.5625 C-157.63069445 1552.34760371 -157.82340692 1554.13275965 -158.015625 1555.91796875 C-158.48402472 1560.25843507 -158.95895506 1564.59814099 -159.4375 1568.9375 C-163.40496666 1568.7921739 -167.37240997 1568.64622087 -171.33984375 1568.5 C-172.56420639 1568.45488281 -173.78856903 1568.40976563 -175.05003357 1568.36328125 C-182.01126431 1568.1054755 -188.97204433 1567.83900312 -195.9324646 1567.56021118 C-253.37487625 1565.26525428 -310.78626858 1564.84469536 -368.2650032 1564.81610382 C-372.56681148 1564.81396075 -376.86861662 1564.81071721 -381.17042327 1564.80642545 C-431.40617018 1564.75740684 -481.6303615 1565.17954428 -531.84375 1566.8125 C-535.14960319 1566.92000742 -538.45553196 1567.02356101 -541.76157379 1567.125 C-549.98752263 1567.37760232 -558.21269009 1567.65015079 -566.4375 1567.9375 C-568.23175415 1567.999375 -568.23175415 1567.999375 -570.06225586 1568.0625 C-573.45320271 1568.18179944 -576.84379747 1568.3081714 -580.234375 1568.4375 C-581.74925507 1568.49067383 -581.74925507 1568.49067383 -583.29473877 1568.54492188 C-584.2116449 1568.58166016 -585.12855103 1568.61839844 -586.07324219 1568.65625 C-586.87252136 1568.68654297 -587.67180054 1568.71683594 -588.49530029 1568.74804688 C-590.51751729 1568.82823128 -590.51751729 1568.82823128 -592.4375 1569.9375 C-591.90125 1570.41316406 -591.365 1570.88882812 -590.8125 1571.37890625 C-583.25627049 1578.12731518 -575.88018559 1585.06042251 -568.5 1592 C-560.15424805 1599.8399488 -551.77255164 1607.64092296 -543.35083008 1615.39916992 C-538.55513353 1619.82039695 -533.78865886 1624.27253927 -529.0234375 1628.7265625 C-525.00779986 1632.47779602 -520.97911948 1636.21428476 -516.9375 1639.9375 C-510.40561681 1645.95668593 -503.90949371 1652.01365873 -497.42285156 1658.08154297 C-495.35382069 1660.01572554 -493.28243943 1661.94737067 -491.2109375 1663.87890625 C-485.13959986 1669.54712106 -479.0859008 1675.20713899 -473.26928711 1681.13867188 C-471.61224594 1682.76589823 -469.91248901 1684.25233109 -468.1328125 1685.7421875 C-461.34487145 1691.64297933 -455.13526415 1698.17361133 -448.8125 1704.5625 C-446.23994223 1707.16181543 -443.66397506 1709.75768317 -441.0859375 1712.3515625 C-440.21852432 1713.23142319 -440.21852432 1713.23142319 -439.33358765 1714.12905884 C-433.35869326 1720.84134773 -433.35869326 1720.84134773 -425.640625 1724.12890625 C-424.17882812 1723.81759766 -424.17882812 1723.81759766 -422.6875 1723.5 C-420.99560547 1723.15582031 -420.99560547 1723.15582031 -419.26953125 1722.8046875 C-417.37267578 1722.37542969 -417.37267578 1722.37542969 -415.4375 1721.9375 C-413.96288287 1721.64517355 -412.48758763 1721.35625214 -411.01171875 1721.0703125 C-393.36503093 1717.67621183 -393.36503093 1717.67621183 -379.64453125 1706.8046875 C-378.2685546 1704.84642701 -378.2685546 1704.84642701 -377.4375 1701.9375 C-376.7775 1701.9375 -376.1175 1701.9375 -375.4375 1701.9375 C-372.73955535 1708.68236161 -372.58729751 1714.18607499 -375 1720.9375 C-379.40927433 1731.00921084 -386.90677466 1736.19130513 -396.4375 1740.9375 C-359.61744019 1762.99205227 -321.71003156 1781.9467808 -279.8125 1792.25 C-278.93392334 1792.46825439 -278.05534668 1792.68650879 -277.15014648 1792.91137695 C-256.44599069 1797.72232399 -235.37618176 1799.76289455 -214.23574829 1801.45941162 C-206.71942593 1802.06434015 -199.20717208 1802.71726233 -191.6953125 1803.375 C-190.5742596 1803.47306757 -190.5742596 1803.47306757 -189.43055916 1803.5731163 C-130.65014378 1808.73911628 -71.72767006 1818.09715086 -14.3828125 1832.0546875 C-13.32428574 1832.31201157 -12.26575897 1832.56933563 -11.17515564 1832.8344574 C-6.12261246 1834.06887267 -1.07754162 1835.32693992 3.9597168 1836.62231445 C5.7660976 1837.07509512 7.57249327 1837.52781649 9.37890625 1837.98046875 C10.17976654 1838.19448334 10.98062683 1838.40849792 11.80575562 1838.6289978 C19.00834209 1840.41246182 25.41631292 1839.7154187 32.53125 1837.73828125 C33.41433838 1837.50157715 34.29742676 1837.26487305 35.20727539 1837.02099609 C36.14949951 1836.76656738 37.09172363 1836.51213867 38.0625 1836.25 C66.29602198 1828.95117589 95.51717458 1824.54471896 124.55859375 1822.16796875 C125.30795197 1822.10543411 126.05731018 1822.04289948 126.82937622 1821.97846985 C130.4527273 1821.67813152 134.07561541 1821.39676097 137.703125 1821.15161133 C152.7165057 1819.98124331 158.29647774 1814.70334528 168.40820312 1803.93554688 C172.89482324 1799.27369668 176.9761979 1795.70613493 182.83227539 1792.89038086 C184.74171885 1792.05217203 184.74171885 1792.05217203 185.5625 1789.9375 C185.85408579 1787.90902934 186.09741334 1785.87352372 186.31640625 1783.8359375 C186.51459961 1782.01835937 186.51459961 1782.01835937 186.71679688 1780.1640625 C186.85150391 1778.89304687 186.98621094 1777.62203125 187.125 1776.3125 C187.26357422 1775.03375 187.40214844 1773.755 187.54492188 1772.4375 C187.88754531 1769.27118685 188.22658367 1766.10453058 188.5625 1762.9375 C189.2225 1762.9375 189.8825 1762.9375 190.5625 1762.9375 C191.88353086 1764.65843476 192.9972959 1766.47048055 194.1484375 1768.30859375 C195.85395802 1770.27324032 197.03271342 1770.55534075 199.5625 1770.9375 C202.62926635 1759.74909033 196.29323044 1746.87356491 191.5625 1736.9375 C195.46722717 1738.5344688 198.19268329 1741.18315505 201.125 1744.125 C201.64731201 1744.64892334 202.16962402 1745.17284668 202.70776367 1745.71264648 C211.16825021 1754.43318112 217.96329092 1764.58477687 224.22265625 1774.9609375 C225.41564568 1777.06800092 225.41564568 1777.06800092 227.5625 1777.9375 C227.67078125 1777.20660156 227.7790625 1776.47570313 227.890625 1775.72265625 C229.4146727 1769.40494689 234.05476669 1763.32687434 239.5625 1759.9375 C242.0625 1758.875 242.0625 1758.875 244.5625 1758.9375 C248.21743838 1761.84483735 249.41626537 1763.35256147 250.5625 1767.9375 C252.2125 1758.3675 253.8625 1748.7975 255.5625 1738.9375 C260.5625 1739.9375 260.5625 1739.9375 262.5625 1741.9375 C265.14424677 1745.81012016 267.3789072 1749.82983978 269.5625 1753.9375 C270.5525 1753.9375 271.5425 1753.9375 272.5625 1753.9375 C272.73265625 1753.380625 272.9028125 1752.82375 273.078125 1752.25 C274.32775706 1748.3149884 275.66053776 1744.44640465 277.375 1740.6875 C277.64957031 1740.08421875 277.92414063 1739.4809375 278.20703125 1738.859375 C280.38695959 1735.76852559 282.10265198 1733.50796013 285.5625 1731.9375 C290.58847049 1731.34123073 295.57771165 1731.51105057 300.625 1731.6875 C303.32410314 1731.75363423 306.02324049 1731.80626303 308.72265625 1731.859375 C309.91511963 1731.89643555 311.10758301 1731.93349609 312.33618164 1731.97167969 C315.24304402 1731.94088432 317.74741098 1731.62328208 320.5625 1730.9375 C320.2325 1732.0925 319.9025 1733.2475 319.5625 1734.4375 C318.1839659 1740.06072905 317.77288048 1745.27291009 319.625 1750.875 C321.29961329 1754.20573423 321.29961329 1754.20573423 324.75 1755.125 C333.53470953 1754.69296511 338.55674902 1749.36924848 344.67578125 1743.6171875 C347.57132145 1740.92931121 350.51827033 1738.3924211 353.5625 1735.875 C354.449375 1735.14152344 355.33625 1734.40804688 356.25 1733.65234375 C358.5625 1731.9375 358.5625 1731.9375 361.5625 1730.9375 C361.98208984 1731.88109375 361.98208984 1731.88109375 362.41015625 1732.84375 C365.83088071 1740.14716171 369.72630977 1746.0146884 376.1875 1750.9375 C387.38459419 1754.25515754 397.36142231 1751.33611777 407.35595703 1745.97558594 C421.94447453 1737.80174223 435.67895233 1727.9445238 449.55567932 1718.6328125 C455.29690975 1714.78154184 461.04863725 1710.94626752 466.8046875 1707.1171875 C467.6652626 1706.54450638 468.52583771 1705.97182526 469.41249084 1705.38179016 C476.23302355 1700.84297887 476.23302355 1700.84297887 479.57235718 1698.62301636 C490.30183253 1691.48851843 500.96963556 1684.27336144 511.5625 1676.9375 C513.11215454 1675.86520142 513.11215454 1675.86520142 514.69311523 1674.77124023 C517.46422682 1672.85056265 520.23285463 1670.92638662 523 1669 C523.97735107 1668.3196167 524.95470215 1667.6392334 525.96166992 1666.93823242 C539.15492037 1657.74581547 552.26851728 1648.45347407 565.29296875 1639.0234375 C569.03865505 1636.31279834 572.79695225 1633.62045277 576.5625 1630.9375 C590.52578293 1620.97934666 604.38768487 1610.88805145 618.18017578 1600.69482422 C620.5321305 1598.9599021 622.88834839 1597.23094856 625.24609375 1595.50390625 C635.53188696 1587.9631341 645.7081366 1580.28941276 655.83984375 1572.54296875 C659.39985601 1569.82150925 662.97215039 1567.11877105 666.5625 1564.4375 C672.93510622 1559.67625278 679.25213331 1554.84254418 685.57543945 1550.01611328 C690.94636395 1545.92010762 696.33594999 1541.85127024 701.75 1537.8125 C709.01733957 1532.38581281 716.1751902 1526.82338569 723.32421875 1521.2421875 C726.89126368 1518.45749377 730.47228651 1515.692255 734.0625 1512.9375 C744.71832672 1504.75414758 755.31865296 1496.49873743 765.875 1488.1875 C767.54003342 1486.8794146 769.20558026 1485.57198857 770.87158203 1484.26513672 C772.04539524 1483.34350862 773.21817459 1482.42056286 774.39013672 1481.49658203 C776.1938932 1480.07626023 778.00257681 1478.66245085 779.8125 1477.25 C780.36204346 1476.81526367 780.91158691 1476.38052734 781.4777832 1475.93261719 C785.33433332 1472.9375 785.33433332 1472.9375 787.5625 1472.9375 C787.2325 1481.5175 786.9025 1490.0975 786.5625 1498.9375 C790.1925 1487.3875 793.8225 1475.8375 797.5625 1463.9375 C801.5625 1465.9375 801.5625 1465.9375 804.875 1468.0625 C808.57974541 1470.16369889 811.27253634 1470.55035195 815.5625 1469.9375 C825.65520298 1465.61205586 830.70373105 1456.34850471 836.36962891 1447.43432617 C840.46484986 1441.009887 844.84692877 1434.92754995 849.5625 1428.9375 C850.62017578 1427.58978516 850.62017578 1427.58978516 851.69921875 1426.21484375 C857.64218639 1418.79947121 864.02833767 1411.82973068 870.5625 1404.9375 C871.2740625 1404.18339844 871.985625 1403.42929688 872.71875 1402.65234375 C877.45755655 1397.76787716 882.60161514 1393.48571418 887.92333984 1389.25146484 C889.76936127 1387.77167823 891.59763358 1386.27133635 893.42578125 1384.76953125 C894.76280365 1383.67942107 896.10004157 1382.58957517 897.4375 1381.5 C898.38314819 1380.71931152 898.38314819 1380.71931152 899.34790039 1379.92285156 C899.95239014 1379.43397461 900.55687988 1378.94509766 901.1796875 1378.44140625 C901.71190918 1378.00642822 902.24413086 1377.5714502 902.79248047 1377.12329102 C904.93778537 1375.68608468 907.14593497 1374.82817977 909.5625 1373.9375 C904.81047969 1387.95076388 899.58069628 1401.69776818 893.9375 1415.375 C893.54443665 1416.33138367 893.15137329 1417.28776733 892.74639893 1418.27313232 C886.01100222 1434.65063795 879.00932047 1450.86918598 871.5625 1466.9375 C870.94050279 1468.28731861 870.31876764 1469.637258 869.69726562 1470.98730469 C856.81448165 1498.93850915 843.08154317 1526.34071877 827.5625 1552.9375 C826.92570312 1554.03513672 826.28890625 1555.13277344 825.6328125 1556.26367188 C809.47788455 1584.0537029 791.94042281 1611.27542911 772.5625 1636.9375 C772.12873047 1637.51322754 771.69496094 1638.08895508 771.24804688 1638.68212891 C768.38921629 1642.46264129 765.48242757 1646.20389834 762.5625 1649.9375 C761.6819081 1651.07652648 760.80171007 1652.21585756 759.921875 1653.35546875 C754.75320985 1660.02330671 749.42545824 1666.51632562 743.9050293 1672.89599609 C740.13511119 1677.25329868 736.47210314 1681.6871569 732.83984375 1686.16015625 C729.8262087 1689.83544702 726.74837393 1693.45424063 723.67016602 1697.07543945 C719.80232994 1701.63383845 716.01107902 1706.24992583 712.2421875 1710.890625 C710.5625 1712.9375 710.5625 1712.9375 709.5625 1713.9375 C709.3838726 1715.28233844 709.26297643 1716.63496247 709.16796875 1717.98828125 C707.96181067 1733.29030866 705.95183347 1747.26076839 694.25 1758.3125 C686.12852567 1764.53579422 676.99822949 1764.3941614 667.125 1764.5 C652.868675 1764.69709205 641.19349559 1765.55056326 629.4375 1774.25 C627.41161542 1777.15376789 626.8471 1779.13622502 627.0625 1782.68359375 C628.05162045 1787.14236327 630.34476261 1790.9858952 632.5625 1794.9375 C633.23639329 1796.26719548 633.90567313 1797.59929199 634.5625 1798.9375 C630.9272782 1798.32051281 628.73128273 1796.76553028 625.8125 1794.5625 C616.49652115 1787.97776604 609.06407541 1786.933852 597.5625 1787.9375 C593.53112815 1788.71070642 589.7027227 1789.85427954 585.81835938 1791.17480469 C583.03840457 1792.11469417 580.24587805 1793.01292738 577.453125 1793.9140625 C573.1695708 1795.30949414 568.88642604 1796.70579592 564.61328125 1798.1328125 C563.26230347 1798.58164795 563.26230347 1798.58164795 561.8840332 1799.03955078 C559.34722066 1799.92416035 559.34722066 1799.92416035 556.5625 1801.9375 C557.01140943 1806.92618703 558.24450217 1809.27444125 561.6875 1812.875 C562.90759766 1814.17050781 562.90759766 1814.17050781 564.15234375 1815.4921875 C566.15769677 1817.52679202 568.19148153 1819.51976971 570.25 1821.5 C578.44771696 1829.67887163 587.00881353 1844.11164889 587.67602539 1855.95214844 C587.66817017 1856.98903809 587.66817017 1856.98903809 587.66015625 1858.046875 C587.65532227 1859.17802734 587.65532227 1859.17802734 587.65039062 1860.33203125 C587.64201172 1861.10933594 587.63363281 1861.88664062 587.625 1862.6875 C587.62048828 1863.48027344 587.61597656 1864.27304688 587.61132812 1865.08984375 C587.59958565 1867.03909508 587.58165146 1868.98830738 587.5625 1870.9375 C583.41025148 1869.34727716 580.88463777 1866.29968898 578 1863.0625 C576.93491297 1861.88670323 575.86980839 1860.71092235 574.8046875 1859.53515625 C574.26682617 1858.93719238 573.72896484 1858.33922852 573.17480469 1857.72314453 C571.62992367 1856.01217243 570.07236365 1854.3140782 568.5078125 1852.62109375 C568.02256104 1852.09563965 567.53730957 1851.57018555 567.03735352 1851.02880859 C566.33823853 1850.27204834 566.33823853 1850.27204834 565.625 1849.5 C562.15069225 1845.73223639 558.81873619 1841.89274933 555.5625 1837.9375 C550.72694808 1839.28678674 547.00269797 1841.42468656 543 1844.375 C542.38995117 1844.82037109 541.77990234 1845.26574219 541.15136719 1845.72460938 C525.6975238 1857.14527916 511.73869404 1870.51161638 499.19287109 1885.05981445 C496.24724182 1888.45227249 493.16555349 1891.71871805 490.1015625 1895.00390625 C487.45876627 1897.84945668 484.88086104 1900.72977823 482.359375 1903.68359375 C476.94459144 1909.90702073 470.8965546 1915.54006492 464.94921875 1921.24804688 C457.64047208 1928.41644065 453.78807716 1933.9727445 453.44897461 1944.44262695 C453.45421143 1945.75706787 453.45944824 1947.07150879 453.46484375 1948.42578125 C453.4662587 1949.12897995 453.46767365 1949.83217865 453.46913147 1950.5566864 C453.47469891 1952.78783544 453.48724525 1955.01888164 453.5 1957.25 C453.50501921 1958.76887875 453.50958138 1960.28775909 453.51367188 1961.80664062 C453.52465764 1965.51696012 453.54189966 1969.22722001 453.5625 1972.9375 C452.52955811 1972.8967334 451.49661621 1972.8559668 450.43237305 1972.81396484 C446.55059634 1972.66398225 442.66839633 1972.52994564 438.78588867 1972.40039062 C437.11483723 1972.34247414 435.44392393 1972.28039998 433.77319336 1972.21386719 C416.2373894 1971.15141753 416.2373894 1971.15141753 400.21875 1977.31640625 C394.1018024 1983.30351298 393.47094651 1992.36320368 393.24609375 2000.42578125 C393.22531265 2001.12897995 393.20453156 2001.83217865 393.18312073 2002.5566864 C393.11809885 2004.78769817 393.05896224 2007.01882069 393 2009.25 C392.95676964 2010.76889134 392.91315395 2012.28777177 392.86914062 2013.80664062 C392.76246666 2017.5168112 392.66106779 2021.22710421 392.5625 2024.9375 C380.18042147 2023.36752354 372.82440027 2016.7346053 365.22412109 2007.27099609 C363.50426866 2005.03679527 361.81617701 2002.78012843 360.13256836 2000.51855469 C356.01867881 1995.06194303 350.62430223 1988.28260519 343.5625 1986.9375 C333.78205216 1987.52240914 324.26139259 1989.64375192 314.6875 1991.625 C313.81600311 1991.80490479 312.94450623 1991.98480957 312.04660034 1992.17016602 C293.05875187 1996.11144832 275.64708551 2000.53620574 258.5625 2009.9375 C258.39162847 2012.95529912 258.39162847 2012.95529912 259.5625 2015.6875 C260.70968424 2019.41584878 261.05603973 2022.05968787 260.5625 2025.9375 C258.49046835 2028.95459106 256.80086213 2030.64681358 253.17553711 2031.49780273 C238.61438492 2032.975994 228.64702303 2030.7261971 216.84570312 2022.45214844 C212.50188559 2019.57051414 207.87299338 2017.21042739 203.25 2014.8125 C202.27458252 2014.3062207 201.29916504 2013.79994141 200.29418945 2013.27832031 C173.1291078 1999.40429899 145.9221356 1991.98246668 115.5625 1998.9375 C113.86091659 1999.50078279 112.16859218 2000.09542093 110.5 2000.75 C107.49978813 2001.86902349 105.68708469 2001.99215576 102.5859375 2001.21484375 C101.39713989 2000.92323364 101.39713989 2000.92323364 100.18432617 2000.62573242 C96.33709151 1999.61582885 92.49168541 1998.59937363 88.64770508 1997.57714844 C51.68719717 1987.8994815 13.71481046 1983.70851335 -24.4375 1982.9375 C-25.79149902 1982.90462891 -25.79149902 1982.90462891 -27.17285156 1982.87109375 C-79.0873724 1981.74861762 -131.00265021 1987.34587002 -182.44628906 1993.65112305 C-183.68041534 1993.80205917 -184.91454163 1993.9529953 -186.18606567 1994.10850525 C-188.51211747 1994.39398762 -190.83787987 1994.68184108 -193.16329956 1994.97242737 C-194.19754059 1995.09979782 -195.23178162 1995.22716827 -196.29736328 1995.35839844 C-197.19786407 1995.47068787 -198.09836487 1995.58297729 -199.02615356 1995.69866943 C-201.4375 1995.9375 -201.4375 1995.9375 -205.4375 1995.9375 C-205.47508423 1994.68090576 -205.47508423 1994.68090576 -205.51342773 1993.39892578 C-205.60850357 1990.29397744 -205.70774025 1987.18919819 -205.80981445 1984.08447266 C-205.87448251 1982.07855193 -205.93433106 1980.07247772 -205.99414062 1978.06640625 C-206.03603516 1976.80957031 -206.07792969 1975.55273438 -206.12109375 1974.2578125 C-206.15775146 1973.09523926 -206.19440918 1971.93266602 -206.23217773 1970.73486328 C-206.25571659 1967.9839499 -206.25571659 1967.9839499 -207.4375 1965.9375 C-207.98019531 1966.43121094 -208.52289062 1966.92492188 -209.08203125 1967.43359375 C-209.79746094 1968.07425781 -210.51289062 1968.71492188 -211.25 1969.375 C-211.95769531 1970.01308594 -212.66539062 1970.65117187 -213.39453125 1971.30859375 C-217.01216589 1974.19301755 -220.59275119 1974.32832464 -225.04736328 1974.26806641 C-229.19019093 1973.69509515 -232.04627215 1971.53458347 -235.375 1969.125 C-236.8669977 1968.10458605 -238.36053738 1967.0864237 -239.85546875 1966.0703125 C-240.6139209 1965.54727539 -241.37237305 1965.02423828 -242.15380859 1964.48535156 C-245.76102831 1962.04043249 -249.46404539 1959.76259741 -253.1875 1957.5 C-254.30523804 1956.82022095 -254.30523804 1956.82022095 -255.44555664 1956.12670898 C-284.21636253 1938.73332394 -314.15793879 1923.45104954 -344.07159424 1908.14813232 C-350.68275316 1904.76520693 -357.29122779 1901.37704666 -363.8989563 1897.98742676 C-366.23791767 1896.78823845 -368.5777677 1895.59079896 -370.91772461 1894.39355469 C-371.64993729 1894.01798431 -372.38214996 1893.64241394 -373.1365509 1893.25546265 C-374.5673764 1892.52232205 -375.99947309 1891.79165639 -377.4329071 1891.06362915 C-380.67581258 1889.40693029 -383.86610102 1887.71206755 -386.99169922 1885.84228516 C-394.31569567 1881.54353528 -399.36880263 1880.06518154 -407.8125 1880.6875 C-443.41500481 1881.90166683 -484.23614197 1870.91157826 -511.4375 1846.9375 C-539.17980918 1822.84326206 -568.21545362 1821.52891024 -603.62426758 1821.42626953 C-631.75748955 1821.30865424 -631.75748955 1821.30865424 -643.4375 1817.9375 C-644.21891357 1817.71336426 -645.00032715 1817.48922852 -645.80541992 1817.25830078 C-660.39014316 1812.63417516 -674.53634776 1805.53409386 -686.4375 1795.9375 C-687.19643555 1795.33663574 -687.19643555 1795.33663574 -687.97070312 1794.72363281 C-728.92254812 1762.15621781 -748.04603221 1711.29768035 -756.65966797 1661.04760742 C-759.00932204 1647.3424157 -764.25190966 1634.21780531 -775.5625 1625.4375 C-776.83728631 1624.57856631 -778.12770916 1623.74204657 -779.4375 1622.9375 C-780.406875 1622.339375 -781.37625 1621.74125 -782.375 1621.125 C-786.36241781 1619.5788584 -790.19264044 1619.21105762 -794.4375 1618.9375 C-796.51854484 1614.23156092 -798.30424125 1609.54371426 -799.8984375 1604.64453125 C-800.36701676 1603.21500523 -800.83586025 1601.78556579 -801.30493164 1600.35620117 C-801.54954132 1599.60776947 -801.794151 1598.85933777 -802.0461731 1598.08822632 C-825.6320796 1526.12261083 -856.33231406 1456.90912835 -887.4375 1387.9375 C-900.28106286 1359.45860113 -912.93171202 1330.89786576 -925.25 1302.1875 C-925.62286133 1301.31957825 -925.99572266 1300.45165649 -926.37988281 1299.55743408 C-939.50819448 1268.97171199 -939.50819448 1268.97171199 -941.6875 1259.9375 C-941.98140625 1258.761875 -942.2753125 1257.58625 -942.578125 1256.375 C-942.8780306 1254.89850109 -943.16265076 1253.41886771 -943.4375 1251.9375 C-943.61845215 1250.99447021 -943.7994043 1250.05144043 -943.98583984 1249.07983398 C-946.14803476 1235.80609456 -945.65539477 1222.4057672 -945.5625 1209 C-945.55244955 1206.46680042 -945.54332736 1203.93359697 -945.53515625 1201.40039062 C-945.51330786 1195.24600833 -945.4799941 1189.09177259 -945.4375 1182.9375 C-944.5101001 1183.09831055 -943.5827002 1183.25912109 -942.62719727 1183.42480469 C-939.50056295 1183.92736359 -936.53933005 1184.13850392 -933.375 1184.1875 C-932.37339844 1184.21328125 -931.37179687 1184.2390625 -930.33984375 1184.265625 C-926.93240064 1183.8803959 -925.14594951 1183.02164486 -922.4375 1180.9375 C-916.70161863 1172.18535767 -921.04085873 1157.36148811 -922.875 1147.8125 C-923.07082169 1146.76551941 -923.07082169 1146.76551941 -923.27059937 1145.6973877 C-936.47131134 1075.36865629 -963.91958858 1009.76636421 -996.9140625 946.59765625 C-997.50219727 945.46602051 -998.09033203 944.33438477 -998.69628906 943.16845703 C-999.83183723 941.06135601 -1001.01972095 938.98139425 -1002.26464844 936.93701172 C-1002.82442383 936.00775879 -1003.38419922 935.07850586 -1003.9609375 934.12109375 C-1004.71383057 932.93664673 -1004.71383057 932.93664673 -1005.48193359 931.72827148 C-1006.88670907 927.62556619 -1006.15809223 924.11066986 -1005.4375 919.9375 C-1005.12634247 918.11298058 -1005.12634247 918.11298058 -1004.80889893 916.25160217 C-1004.15501219 912.4845779 -1003.47661978 908.72217116 -1002.79638863 904.95982933 C-999.86897325 888.71123754 -997.21588387 872.43072777 -994.75390625 856.10546875 C-994.60033031 855.08923557 -994.44675438 854.0730024 -994.28852463 853.02597427 C-992.8706753 843.63690358 -991.46506836 834.24601282 -990.06518555 824.85424805 C-986.75492464 802.66968669 -983.32464391 780.52835254 -979.2109375 758.4765625 C-979.04913561 757.60690039 -978.88733372 756.73723827 -978.72062874 755.84122276 C-963.34369887 673.60080239 -933.61966791 603.76188668 -873.86328125 544.23291016 C-872.17068653 542.54574042 -870.48359403 540.85319804 -868.796875 539.16015625 C-863.74458742 534.10472951 -858.66998571 529.12413552 -853.23046875 524.48095703 C-850.0843973 521.77269672 -847.08384245 518.90818301 -844.0625 516.0625 C-839.88843348 512.14776898 -835.70621422 508.24936186 -831.4375 504.4375 C-820.61657161 494.72325747 -810.10961317 484.72410535 -799.79663086 474.47286987 C-798.65682531 473.34046592 -797.51543136 472.2096581 -796.37231445 471.08059692 C-789.23610078 464.02404489 -782.66574919 456.81956417 -776.4375 448.9375 C-775.56412548 447.88989466 -774.68640822 446.84586174 -773.80078125 445.80859375 C-761.71742619 431.46967908 -756.30476777 415.41129835 -750.33129883 397.86254883 C-744.08119334 379.5345975 -736.52087008 366.69037208 -722.68188477 352.93896484 C-721.71805413 351.97405846 -720.75465727 351.00871861 -719.79165649 350.04298401 C-717.19905407 347.44557701 -714.60031474 344.85439431 -712.00021482 342.26449537 C-709.26602358 339.53915896 -706.53717743 336.8084796 -703.80760193 334.07852173 C-699.22564341 329.49749663 -694.63984817 324.9203416 -690.05151367 320.34570312 C-684.7637223 315.07363844 -679.48117697 309.79636414 -674.20161015 304.51606405 C-668.55529572 298.86907161 -662.90517204 293.22590227 -657.25393558 287.58383608 C-655.63669633 285.96871736 -654.02015889 284.35289909 -652.40377998 282.7369194 C-649.85421839 280.1883702 -647.30209353 277.64241426 -644.74805069 275.09835625 C-643.37633707 273.7309061 -642.00700491 272.36106833 -640.63777161 270.99113464 C-636.26581817 266.64154205 -631.83821415 262.42805167 -627.14515591 258.42540932 C-624.4371042 256.06583831 -621.94348341 253.50771758 -619.4375 250.9375 C-615.66291532 247.11651853 -611.84447238 243.44905152 -607.75 239.96875 C-604.46390406 237.08231438 -601.30587636 234.06392208 -598.125 231.0625 C-592.9287961 226.17338823 -587.62407931 221.5332882 -582.046875 217.078125 C-579.25318484 214.78629535 -576.59541222 212.38518188 -573.9375 209.9375 C-568.61091635 205.04403371 -563.10076941 200.43531001 -557.4375 195.9375 C-556.3546875 195.06931641 -556.3546875 195.06931641 -555.25 194.18359375 C-535.67770581 178.93096605 -512.29758941 182.2294785 -489.07666016 184.86083984 C-474.80763828 186.43280252 -460.71528154 186.56261335 -446.4375 184.9375 C-446.31375 184.3290625 -446.19 183.720625 -446.0625 183.09375 C-439.6016615 155.63518639 -418.09901444 129.70942312 -394.4375 114.9375 C-393.87611328 114.58445801 -393.31472656 114.23141602 -392.73632812 113.86767578 C-371.30131691 100.57002994 -346.82448467 94.34555995 -321.796875 99.46484375 C-311.30249498 101.56719471 -303.4093723 97.55654166 -294.74755859 91.81787109 C-283.91098278 84.22936796 -274.26770695 74.91719755 -265.02734375 65.49609375 C-263.30882683 63.81135603 -261.51642715 62.25147191 -259.6875 60.6875 C-256.26229047 57.74686468 -253.09377179 54.59783925 -249.9375 51.375 C-238.07602243 39.37725374 -238.07602243 39.37725374 -229.4375 37.9375 C-226.13879752 38.12780976 -224.22377828 38.31389998 -221.625 40.375 C-218.96175141 43.87927446 -219.24575844 47.20630595 -219.25 51.4375 C-219.25012085 52.55535889 -219.25012085 52.55535889 -219.25024414 53.69580078 C-219.3409878 62.86377639 -219.52437386 73.19812158 -222.4375 81.9375 C-221.45394531 81.22207031 -220.47039063 80.50664062 -219.45703125 79.76953125 C-168.93112831 43.3507871 -110.90130789 21.97866405 -52.79240417 0.98977661 C-48.17404512 -0.68111022 -43.57628039 -2.38656392 -39.00537109 -4.18359375 C-38.14590378 -4.51629272 -37.28643646 -4.8489917 -36.40092468 -5.19177246 C-34.80244889 -5.8126832 -33.20868971 -6.44594975 -31.62117004 -7.09436035 C-20.75325361 -11.28083191 -9.45711917 -5.71338514 0 0 Z M-847.4375 1286.9375 C-847.4375 1290.43915922 -846.59480849 1291.83138084 -844.91796875 1294.875 C-844.39009766 1295.85339844 -843.86222656 1296.83179688 -843.31835938 1297.83984375 C-842.20529969 1299.87595986 -841.0882266 1301.90988809 -839.96679688 1303.94140625 C-835.03403002 1313.11336304 -832.42330639 1321.78189356 -831.5 1332.125 C-830.85074576 1338.21695397 -829.76676143 1342.74776894 -826.4375 1347.9375 C-825.633125 1349.2059375 -825.633125 1349.2059375 -824.8125 1350.5 C-819.11391397 1356.34854882 -811.91454426 1360.73305246 -804.4375 1363.9375 C-803.7775 1363.6075 -803.1175 1363.2775 -802.4375 1362.9375 C-803.05625 1362.04224609 -803.05625 1362.04224609 -803.6875 1361.12890625 C-811.17511393 1349.88077193 -816.32459679 1337.6600223 -821.51391602 1325.22387695 C-829.32337201 1304.88854942 -829.32337201 1304.88854942 -842.4375 1287.9375 C-845.1519047 1286.98861395 -845.1519047 1286.98861395 -847.4375 1286.9375 Z M-876.16796875 1293.16015625 C-878.22849663 1296.04489528 -878.38105207 1298.43772813 -878.4375 1301.9375 C-876.78249656 1304.66913268 -876.78249656 1304.66913268 -874.1875 1307 C-869.42940459 1311.83862735 -865.2350842 1316.87201971 -861.10644531 1322.25415039 C-859.00664825 1324.97899791 -856.90406578 1327.54168724 -854.4375 1329.9375 C-855.83852029 1321.52158091 -858.3064287 1313.54086338 -860.9375 1305.4375 C-861.34540548 1304.15115368 -861.75295981 1302.86469595 -862.16015625 1301.578125 C-862.55074219 1300.36640625 -862.94132813 1299.1546875 -863.34375 1297.90625 C-863.69759766 1296.80732422 -864.05144531 1295.70839844 -864.41601562 1294.57617188 C-865.27422466 1291.83134543 -865.27422466 1291.83134543 -867.4375 1289.9375 C-871.6830701 1289.9375 -872.87368086 1290.68318535 -876.16796875 1293.16015625 Z M784.5625 1502.9375 C785.5625 1504.9375 785.5625 1504.9375 785.5625 1504.9375 Z " fill="#ED1602" transform="translate(1009.4375,110.0625)"/>
<path d="M0 0 C2.69223121 -0.01088405 5.38403569 -0.02969379 8.07623291 -0.05255127 C90.67325208 -0.70816006 173.71035724 29.4529469 244.85440063 70.23117065 C245.58546021 70.64640991 246.31651978 71.06164917 247.06973267 71.48947144 C271.25960855 85.26556975 294.1762395 100.77743692 315.85440063 118.23117065 C317.3181311 119.40292847 317.3181311 119.40292847 318.81143188 120.59835815 C324.191664 124.94769265 329.3975606 129.44613923 334.51065063 134.10617065 C336.66132774 136.0561179 338.84265035 137.96143194 341.04190063 139.85617065 C344.20630039 142.60837405 347.15820221 145.51077945 350.09268188 148.50460815 C351.84286407 150.21986431 353.66330899 151.78357641 355.54190063 153.35617065 C360.91728939 157.99477833 365.57314145 163.3001223 370.32852173 168.55685425 C371.77703039 170.14627383 373.24266975 171.71714311 374.71768188 173.2819519 C387.08258368 186.43392851 396.47969917 200.71018856 405.89883423 216.05392456 C409.02323178 221.13019294 412.1902074 226.17965116 415.35440063 231.23117065 C416.60462026 233.23103337 417.85461991 235.23103362 419.10440063 237.23117065 C419.72315063 238.22117065 420.34190063 239.21117065 420.97940063 240.23117065 C467.85440063 315.23117065 514.72940063 390.23117065 561.60440063 465.23117065 C562.22387573 466.22229858 562.84335083 467.21342651 563.4815979 468.23458862 C564.72439086 470.22312216 565.96706773 472.21172826 567.20962524 474.20040894 C570.44391677 479.3764643 573.68056192 484.55102726 576.92080688 489.72335815 C577.58983032 490.79199097 578.25885376 491.86062378 578.94815063 492.9616394 C580.21692551 494.98815483 581.48640296 497.01423062 582.75674438 499.0397644 C583.91762431 500.89459256 585.06777748 502.75618277 586.20645142 504.62472534 C587.7865858 507.20807062 587.7865858 507.20807062 589.5140686 509.40792847 C593.45009085 514.88128904 594.50556141 519.97644706 595.32559204 526.5151062 C595.44848886 527.43296559 595.57138567 528.35082499 595.69800663 529.2964983 C596.09361084 532.27349025 596.47467215 535.25211562 596.85440063 538.23117065 C597.11173185 540.20270777 597.36953025 542.17418397 597.62779236 544.14559937 C598.4587589 550.53004945 599.2656512 556.91744413 600.06924438 563.3053894 C600.21595644 564.46935556 600.3626685 565.63332172 600.51382637 566.83255959 C601.29206937 573.00806253 602.06816133 579.18383129 602.84243774 585.35983276 C603.46988955 590.36193959 604.1011331 595.36354358 604.73599243 600.36471558 C611.6927855 655.18580017 617.82685278 710.02125194 617.97940063 765.35617065 C617.98407349 766.51205688 617.98874634 767.66794312 617.99356079 768.8588562 C617.98168254 775.06706774 617.6741861 781.07627339 616.85440063 787.23117065 C628.12169617 784.4078514 631.51218531 777.83440126 637.46109009 768.37130737 C641.72128756 761.69607063 646.23176713 756.1108322 653.85440063 753.23117065 C655.17440063 753.23117065 656.49440063 753.23117065 657.85440063 753.23117065 C657.45479126 754.43128784 657.05518188 755.63140503 656.64346313 756.8678894 C656.23015747 758.10998169 656.23015747 758.10998169 655.8085022 759.37716675 C655.14801906 761.35286988 654.48300116 763.32706065 653.81436157 765.30001831 C633.03606221 826.77742793 622.32298656 891.72908259 618.59902954 956.45870972 C618.52474731 957.72682495 618.45046509 958.99494019 618.37393188 960.30148315 C618.31954956 961.40508179 618.26516724 962.50868042 618.20913696 963.64572144 C617.85440063 966.23117065 617.85440063 966.23117065 615.85440063 968.23117065 C603.68441553 925.39991238 610.84712924 879.14864806 616.22817993 835.73703003 C616.3356958 834.86606186 616.44321167 833.99509369 616.5539856 833.09773254 C616.75655952 831.46297008 616.96134428 829.82847948 617.16873169 828.19432068 C617.58618883 824.83234619 617.85440063 821.62600691 617.85440063 818.23117065 C617.40709595 818.7622644 616.95979126 819.29335815 616.49893188 819.84054565 C607.91652886 829.86859866 607.91652886 829.86859866 603.72158813 830.60617065 C599.93075616 830.8063466 597.44885414 830.53500244 594.04190063 828.79367065 C587.40532925 821.01940132 586.63053836 811.92810176 586.97940063 802.04367065 C586.83033399 797.49713798 586.41966446 794.05210415 583.85440063 790.23117065 C581.50360084 788.24433804 579.06279367 786.60198185 576.47158813 784.94210815 C572.58962189 782.40434514 569.28286956 779.33822062 565.85440063 776.23117065 C565.11190063 775.59179565 564.36940063 774.95242065 563.60440063 774.29367065 C558.55072043 769.92292021 554.14160304 765.3445074 549.85440063 760.23117065 C549.04358032 759.3082019 548.23276001 758.38523315 547.39736938 757.43429565 C528.70675315 736.05705231 514.97250026 711.2797416 501.85440063 686.23117065 C501.22767456 685.04708618 501.22767456 685.04708618 500.58828735 683.83908081 C499.52689414 681.81459671 498.49620877 679.7783302 497.47940063 677.73117065 C496.93541626 676.64835815 496.39143188 675.56554565 495.83096313 674.44992065 C493.76062607 667.62608969 496.41340564 660.75011085 498.29190063 654.10617065 C505.76453201 626.42936208 505.12724241 598.32453529 490.63174438 572.9850769 C483.40146818 561.78212146 474.46799531 554.39399876 463.55361938 546.9928894 C438.38359639 529.9001724 427.39718631 509.97555124 416.85440063 482.23117065 C416.19141968 480.49939575 416.19141968 480.49939575 415.51504517 478.7326355 C404.69914314 450.4022797 404.69914314 450.4022797 401.85440063 438.23117065 C401.66120239 437.40810425 401.46800415 436.58503784 401.26895142 435.73703003 C397.15136021 417.30366661 397.41970604 398.9966018 397.85440063 380.23117065 C391.09647065 382.77449674 384.79717385 385.74779039 378.47940063 389.23117065 C365.73660239 396.10086352 352.2183018 401.6597941 337.44815063 398.7585144 C329.13349477 395.92526694 322.10065722 389.98722686 315.08779907 384.85568237 C311.56175388 382.29093547 307.98703299 379.79646098 304.41690063 377.29367065 C297.76829079 372.61010291 291.17061698 367.85862811 284.58511353 363.08688354 C279.53379995 359.4312918 274.45488834 355.81777447 269.35440063 352.23117065 C261.23242545 346.51765793 253.17946178 340.71169363 245.13809204 334.88546753 C241.29560952 332.10198864 237.45030093 329.32242466 233.60440063 326.54367065 C232.8516687 325.99976685 232.09893677 325.45586304 231.32339478 324.89547729 C226.28382808 321.25661613 221.23131632 317.63647738 216.16836548 314.03024292 C212.26113504 311.24437759 208.37165369 308.43484873 204.48696899 305.61764526 C195.62981571 299.19723881 186.69717639 292.89266579 177.72549438 286.6335144 C173.25682846 283.51573824 168.80303718 280.37743448 164.35440063 277.23117065 C131.99000014 254.36691968 99.32106115 231.86178018 65.9100647 210.54464722 C63.58312726 209.05783921 61.26190868 207.56228151 58.94033813 206.06710815 C37.95354941 192.58884025 16.6301073 179.58222614 -4.9937439 167.14767456 C-10.06220689 164.2310331 -15.09518248 161.33027969 -19.91513062 158.01242065 C-31.26803735 150.43292421 -42.01214007 150.03493246 -55.45809937 149.56710815 C-74.45271635 148.8962061 -93.06539442 144.95077395 -111.14559937 139.23117065 C-111.94481812 138.98028687 -112.74403687 138.72940308 -113.56747437 138.47091675 C-133.87239059 131.93653249 -152.77637871 121.91418461 -169.14559937 108.23117065 C-169.93329712 107.58583374 -169.93329712 107.58583374 -170.73690796 106.92745972 C-182.55921638 97.16004463 -192.68762438 84.7821213 -195.14559937 69.23117065 C-196.07384514 58.88351287 -194.52037957 48.44869384 -188.33309937 39.85617065 C-187.29515234 38.62668228 -186.23250433 37.41759945 -185.14559937 36.23117065 C-184.62095093 35.61628784 -184.09630249 35.00140503 -183.55575562 34.3678894 C-172.89756714 22.65642112 -157.88700434 21.28555099 -142.99862671 20.54660034 C-107.31925699 18.92697608 -107.31925699 18.92697608 -95.14559937 26.23117065 C-94.78208374 25.51831909 -94.41856812 24.80546753 -94.04403687 24.0710144 C-88.71908261 13.92629386 -82.91686357 5.40693668 -71.44418335 1.67819214 C-68.28726587 1.06424462 -65.21650927 1.00573162 -62.00106812 0.9147644 C-61.26840225 0.89380203 -60.53573639 0.87283966 -59.78086853 0.85124207 C-57.29839937 0.78362879 -54.8158502 0.72496647 -52.33309937 0.66867065 C-51.46423096 0.64848877 -50.59536255 0.62830688 -49.70016479 0.60751343 C-33.13584489 0.23650954 -16.56813292 0.06522104 0 0 Z " fill="#ED1602" transform="translate(1339.1455993652344,165.76882934570313)"/>
</svg>
